# File created by Blade
# Date/Time:  Mon Sep 22 15:50:36 2014
# Frame Rate: 120.000 fps
#------------------------------------------------------
:FULLY-SPECIFIED
:DEGREES
4056
root 2.805440 37.052547 3.669843 2.895748 9.066738 4.070334
RightUpLeg 8.946462 -13.353412 -6.325119
RightLeg -5.572965 -0.000000 0.000000
RightFoot -14.827017 -19.216762 17.991387
RightToeBase 12.394632 -0.000000 -0.000000
LeftUpLeg 3.819243 -9.336537 -1.390109
LeftLeg -2.713722 -0.000000 0.000000
LeftFoot -8.805517 12.920969 -17.509919
LeftToeBase 7.771135 -0.000000 -0.000000
Spine 1.277635 26.756805 0.953951
RightShoulder 4.990933 -32.425524 -17.838204
RightArm 8.867760 -27.172143 70.053818
RightForeArm 17.110725 0.000000 39.341803
RightHand 3.213461 -0.000000 0.402697
RightHandThumb1 -24.326973 -0.000000 -32.862282
LeftShoulder -36.601462 31.984629 5.872636
LeftArm 72.649476 -72.431293 -112.605828
LeftForeArm -57.430590 -0.000000 -3.247027
LeftHand -33.940148 -0.000000 46.482222
LeftHandThumb1 -26.253704 0.000000 33.147579
Head 17.902356 -11.721780 4.458195
4057
root 2.804386 37.051585 3.678604 2.774668 8.965551 4.024666
RightUpLeg 8.986566 -13.209475 -6.302165
RightLeg -5.439046 -0.000000 0.000000
RightFoot -14.899448 -19.219272 18.008587
RightToeBase 12.390822 -0.000000 -0.000000
LeftUpLeg 3.913262 -9.394802 -1.377166
LeftLeg -2.620941 -0.000000 0.000000
LeftFoot -8.926272 13.054423 -17.500989
LeftToeBase 7.732783 -0.000000 -0.000000
Spine 1.355913 26.833834 0.989395
RightShoulder 4.969247 -32.383789 -17.846815
RightArm 8.805439 -26.947589 70.120005
RightForeArm 17.301407 -0.000000 39.462073
RightHand 3.387179 0.000000 0.018112
RightHandThumb1 -24.326973 -0.000000 -32.862282
LeftShoulder -36.535596 31.966723 5.882157
LeftArm 71.554031 -72.474942 -111.442713
LeftForeArm -57.309725 -0.000000 -2.999905
LeftHand -34.159713 -0.000000 45.943143
LeftHandThumb1 -26.253704 0.000000 33.147579
Head 17.829566 -11.701155 4.423100
4058
root 2.801520 37.050952 3.689927 2.638229 8.882190 3.987464
RightUpLeg 9.049272 -13.129878 -6.286944
RightLeg -5.301805 -0.000000 0.000000
RightFoot -14.970302 -19.209387 17.988965
RightToeBase 12.402723 -0.000000 -0.000000
LeftUpLeg 4.035575 -9.376765 -1.368383
LeftLeg -2.541518 -0.000000 0.000000
LeftFoot -9.023444 13.096682 -17.508486
LeftToeBase 7.762408 -0.000000 -0.000000
Spine 1.435148 26.920207 1.008178
RightShoulder 4.963537 -32.364224 -17.843548
RightArm 8.739721 -26.672340 70.222395
RightForeArm 17.530930 -0.000000 39.569558
RightHand 3.592683 -0.000000 -0.584707
RightHandThumb1 -24.326973 -0.000000 -32.862282
LeftShoulder -36.508340 31.985307 5.884726
LeftArm 71.020115 -72.454131 -110.813426
LeftForeArm -57.359533 -0.000000 -2.717446
LeftHand -33.797869 0.000000 45.828883
LeftHandThumb1 -26.253704 0.000000 33.147579
Head 17.803506 -11.758814 4.399337
4059
root 2.799727 37.049504 3.700514 2.524753 8.820901 3.960528
RightUpLeg 9.103904 -13.075701 -6.284195
RightLeg -5.182877 -0.000000 0.000000
RightFoot -15.038571 -19.178131 17.996194
RightToeBase 12.407678 -0.000000 -0.000000
LeftUpLeg 4.135930 -9.429863 -1.369192
LeftLeg -2.472262 -0.000000 0.000000
LeftFoot -9.133521 13.197290 -17.512834
LeftToeBase 7.827124 -0.000000 -0.000000
Spine 1.476558 26.978933 1.000731
RightShoulder 4.961699 -32.311630 -17.852425
RightArm 8.632643 -26.403297 70.375099
RightForeArm 17.704096 -0.000000 39.671536
RightHand 3.738403 -0.000000 -1.100406
RightHandThumb1 -24.326973 -0.000000 -32.862282
LeftShoulder -36.474475 31.993214 5.948496
LeftArm 70.979517 -72.514878 -110.723008
LeftForeArm -56.936731 -0.000000 -2.411036
LeftHand -33.623631 -0.000000 45.986987
LeftHandThumb1 -26.253704 0.000000 33.147579
Head 17.810747 -11.752153 4.409190
4060
root 2.796741 37.048491 3.709877 2.430061 8.772160 3.946077
RightUpLeg 9.153171 -13.037152 -6.284982
RightLeg -5.087755 -0.000000 0.000000
RightFoot -15.098899 -19.169982 17.983545
RightToeBase 12.438815 -0.000000 -0.000000
LeftUpLeg 4.218297 -9.437176 -1.371672
LeftLeg -2.405450 -0.000000 0.000000
LeftFoot -9.190753 13.216641 -17.541138
LeftToeBase 7.729239 -0.000000 -0.000000
Spine 1.482978 27.026211 0.962644
RightShoulder 4.954382 -32.292926 -17.853327
RightArm 8.586755 -26.166348 70.489816
RightForeArm 17.992637 -0.000000 39.770565
RightHand 3.865695 -0.000000 -1.673187
RightHandThumb1 -24.326973 -0.000000 -32.862282
LeftShoulder -36.463101 31.980130 6.029702
LeftArm 71.060322 -72.548438 -110.668619
LeftForeArm -56.498798 -0.000000 -2.237107
LeftHand -33.638681 -0.000000 45.823801
LeftHandThumb1 -26.253704 0.000000 33.147579
Head 17.850831 -11.786181 4.406309
4061
root 2.791718 37.047262 3.717754 2.358973 8.758119 3.927082
RightUpLeg 9.181738 -13.023328 -6.269654
RightLeg -4.992023 -0.000000 0.000000
RightFoot -15.158950 -19.172903 17.977167
RightToeBase 12.450284 -0.000000 -0.000000
LeftUpLeg 4.271519 -9.414850 -1.354908
LeftLeg -2.352891 -0.000000 0.000000
LeftFoot -9.220506 13.173007 -17.604899
LeftToeBase 7.640769 -0.000000 -0.000000
Spine 1.457746 27.016108 0.915559
RightShoulder 4.984068 -32.280935 -17.876399
RightArm 8.573082 -25.995893 70.586778
RightForeArm 18.192892 -0.000000 39.864603
RightHand 4.020204 -0.000000 -2.337010
RightHandThumb1 -24.326973 -0.000000 -32.862282
LeftShoulder -36.342331 31.955876 6.141800
LeftArm 70.893555 -72.701932 -110.339230
LeftForeArm -56.375180 -0.000000 -2.074364
LeftHand -33.642183 -0.000000 46.256566
LeftHandThumb1 -26.253704 0.000000 33.147579
Head 17.915443 -11.795781 4.409959
4062
root 2.788433 37.045655 3.727479 2.294666 8.757293 3.917124
RightUpLeg 9.222737 -13.067201 -6.274244
RightLeg -4.914628 -0.000000 0.000000
RightFoot -15.199632 -19.122422 17.938132
RightToeBase 12.486535 -0.000000 -0.000000
LeftUpLeg 4.331484 -9.412716 -1.354304
LeftLeg -2.306802 -0.000000 0.000000
LeftFoot -9.243974 13.197006 -17.402343
LeftToeBase 7.677956 -0.000000 -0.000000
Spine 1.407943 26.995711 0.853669
RightShoulder 5.029121 -32.275000 -17.889049
RightArm 8.535308 -25.801811 70.684573
RightForeArm 18.422976 -0.000000 39.987698
RightHand 4.183928 -0.000000 -3.018869
RightHandThumb1 -24.326973 -0.000000 -32.862282
LeftShoulder -36.237090 31.904311 6.299524
LeftArm 70.545676 -72.819222 -109.782306
LeftForeArm -56.155765 -0.000000 -1.986189
LeftHand -33.573533 -0.000000 46.340171
LeftHandThumb1 -26.253704 0.000000 33.147579
Head 18.022096 -11.776156 4.411924
4063
root 2.786993 37.044602 3.738563 2.242140 8.758522 3.920442
RightUpLeg 9.265992 -13.122742 -6.297325
RightLeg -4.854103 -0.000000 0.000000
RightFoot -15.232796 -19.044431 17.948533
RightToeBase 12.470702 -0.000000 -0.000000
LeftUpLeg 4.383166 -9.351823 -1.364162
LeftLeg -2.278309 -0.000000 0.000000
LeftFoot -9.297293 13.162910 -17.445940
LeftToeBase 7.842427 -0.000000 -0.000000
Spine 1.330473 26.989935 0.755668
RightShoulder 5.023493 -32.243772 -17.849585
RightArm 8.497654 -25.679046 70.744881
RightForeArm 18.589340 -0.000000 40.097481
RightHand 4.286310 -0.000000 -3.513910
RightHandThumb1 -24.326973 -0.000000 -32.862282
LeftShoulder -36.152279 31.882036 6.470444
LeftArm 70.403216 -72.891954 -109.446049
LeftForeArm -56.029587 -0.000000 -1.831355
LeftHand -33.354283 -0.000000 46.842425
LeftHandThumb1 -26.253704 0.000000 33.147579
Head 18.135405 -11.836550 4.436687
4064
root 2.783400 37.044270 3.748111 2.199826 8.800978 3.926192
RightUpLeg 9.324689 -13.199503 -6.312234
RightLeg -4.835458 -0.000000 0.000000
RightFoot -15.247105 -19.003563 17.932002
RightToeBase 12.507209 -0.000000 -0.000000
LeftUpLeg 4.417439 -9.314487 -1.366785
LeftLeg -2.243489 -0.000000 0.000000
LeftFoot -9.297989 13.096254 -17.427968
LeftToeBase 7.854016 -0.000000 -0.000000
Spine 1.247527 26.941554 0.658633
RightShoulder 5.008327 -32.235861 -17.813420
RightArm 8.519152 -25.570020 70.782819
RightForeArm 18.763219 -0.000000 40.195257
RightHand 4.410832 -0.000000 -4.023329
RightHandThumb1 -24.326973 -0.000000 -32.862282
LeftShoulder -36.077163 31.871553 6.602265
LeftArm 70.399447 -72.963310 -109.207056
LeftForeArm -55.987449 0.000000 -1.680314
LeftHand -33.122142 -0.000000 46.937932
LeftHandThumb1 -26.253704 0.000000 33.147579
Head 18.252087 -11.860932 4.471970
4065
root 2.781576 37.043159 3.757243 2.169618 8.839755 3.949622
RightUpLeg 9.361333 -13.312635 -6.354240
RightLeg -4.789207 -0.000000 0.000000
RightFoot -15.264879 -18.915123 17.901934
RightToeBase 12.475538 -0.000000 -0.000000
LeftUpLeg 4.444182 -9.256095 -1.387141
LeftLeg -2.204669 -0.000000 0.000000
LeftFoot -9.241080 12.994283 -17.318924
LeftToeBase 7.730619 -0.000000 -0.000000
Spine 1.151657 26.891682 0.536745
RightShoulder 5.003549 -32.239782 -17.768449
RightArm 8.543908 -25.462953 70.793085
RightForeArm 18.794999 -0.000000 40.342235
RightHand 4.417765 -0.000000 -4.274217
RightHandThumb1 -24.326973 -0.000000 -32.862282
LeftShoulder -35.980799 31.866044 6.762232
LeftArm 70.167479 -73.044968 -108.738356
LeftForeArm -55.941607 -0.000000 -1.559750
LeftHand -33.187242 -0.000000 46.994044
LeftHandThumb1 -26.253704 0.000000 33.147579
Head 18.349838 -11.834286 4.515530
4066
root 2.780641 37.042376 3.765665 2.148182 8.897652 3.972225
RightUpLeg 9.422539 -13.397769 -6.384943
RightLeg -4.807701 -0.000000 0.000000
RightFoot -15.267105 -18.903916 17.890549
RightToeBase 12.488783 -0.000000 -0.000000
LeftUpLeg 4.464963 -9.224646 -1.406276
LeftLeg -2.184635 -0.000000 0.000000
LeftFoot -9.223305 12.919151 -17.306611
LeftToeBase 7.732738 -0.000000 -0.000000
Spine 1.058701 26.795043 0.420451
RightShoulder 5.006216 -32.213328 -17.723790
RightArm 8.577734 -25.398844 70.771899
RightForeArm 18.825641 -0.000000 40.483337
RightHand 4.438427 -0.000000 -4.491950
RightHandThumb1 -24.326973 -0.000000 -32.862282
LeftShoulder -35.952568 31.894744 6.857725
LeftArm 69.893832 -73.065439 -108.218145
LeftForeArm -55.942794 0.000000 -1.401444
LeftHand -33.444987 0.000000 46.477847
LeftHandThumb1 -26.253704 0.000000 33.147579
Head 18.430435 -11.787757 4.551494
